# xmcd
#
# Track frame offsets: 
#        150
#        12587
#        25489
#        38715
#        51737
#        66517
#        76731
#        85387
#        100172
#        115102
#        125398
#        135294
#        149851
#        160916
#        172228
#        186028
#        197862
#        207620
#        218305
#        227918
#        236760
#        248468
#        258034
#        271313
#        284051
#        293508
#        305475
#
# Disc length: 4316 seconds
#
# Revision: 0
# Processed by: cddbd v1.5.2PL0 Copyright (c) Steve Scherf et al.
# Submitted via: ExactAudioCopy v0.99pb5
#
DISCID=9710da1b
DTITLE=Dee Mullins - The Continuing Story
DYEAR=2009
DGENRE=Country
TTITLE0=Texas Tea
TTITLE1=I Am The Grass
TTITLE2=Guilt Box
TTITLE3=California, The Promise Land
TTITLE4=War Baby
TTITLE5=Run Willie Run
TTITLE6=Beers
TTITLE7=Remember Bethlehem
TTITLE8=The Next Face I See
TTITLE9=Parking For Cheaters
TTITLE10=Irma Jackson (censored)
TTITLE11=The Continuing Story Of Harper Valley P.T.A.
TTITLE12=Satisfied Old Man
TTITLE13=The World I'm Living In
TTITLE14=In A Small Town
TTITLE15=The Big Man
TTITLE16=Love Makes The World Go 'Round (But Money Greases The Wheel)
TTITLE17=Come On Back (And Be My Love Again)
TTITLE18=The World's A Lie
TTITLE19=I've Really Got A Right To Cry
TTITLE20=Prison Grey
TTITLE21=Back Where I Began
TTITLE22=Look Away Mama
TTITLE23=There Lies The Difference
TTITLE24=Circle Me
TTITLE25=Friday's Wine
TTITLE26=Revelations
EXTD=
EXTT0=
EXTT1=
EXTT2=
EXTT3=
EXTT4=
EXTT5=
EXTT6=
EXTT7=
EXTT8=
EXTT9=
EXTT10=
EXTT11=
EXTT12=
EXTT13=
EXTT14=
EXTT15=
EXTT16=
EXTT17=
EXTT18=
EXTT19=
EXTT20=
EXTT21=
EXTT22=
EXTT23=
EXTT24=
EXTT25=
EXTT26=
PLAYORDER=
